<!DOCTYPE svg PUBLIC "-//W3C//DTD SVG 1.1//EN" "http://www.w3.org/Graphics/SVG/1.1/DTD/svg11.dtd">
<!-- Uploaded to: SVG Repo, www.svgrepo.com, Transformed by: SVG Repo Mixer Tools -->
<svg version="1.1" id="Layer_1" xmlns="http://www.w3.org/2000/svg" xmlns:xlink="http://www.w3.org/1999/xlink" viewBox="-61.44 -61.44 634.86 634.86" xml:space="preserve" width="228px" height="228px" fill="#000000" stroke="#000000" stroke-width="7.167748000000001" transform="rotate(180)">
<g id="SVGRepo_bgCarrier" stroke-width="0"/>
<g id="SVGRepo_tracerCarrier" stroke-linecap="round" stroke-linejoin="round"/>
<g id="SVGRepo_iconCarrier"> <rect x="42.656" y="85.332" style="fill:#356e40;" width="426.67" height="426.65"/> <rect x="42.656" y="319.992" style="fill:#e5f1df;" width="106.67" height="106.67"/> <rect x="149.329" y="319.992" style="fill:#57ae37;" width="106.65" height="106.67"/> <rect x="255.979" y="319.992" style="fill:#e5f1df;" width="106.66" height="106.67"/> <g> <rect x="362.639" y="319.992" style="fill:#57ae37;" width="106.68" height="106.67"/> <rect x="42.656" y="213.332" style="fill:#57ae37;" width="106.67" height="106.66"/> </g> <rect x="149.329" y="213.332" style="fill:#e5f1df;" width="106.65" height="106.66"/> <rect x="255.979" y="213.332" style="fill:#57ae37;" width="106.66" height="106.66"/> <g> <rect x="362.639" y="213.332" style="fill:#e5f1df;" width="106.68" height="106.66"/> <rect x="42.656" y="106.662" style="fill:#e5f1df;" width="106.67" height="106.67"/> </g> <rect x="149.329" y="106.662" style="fill:#57ae37;" width="106.65" height="106.67"/> <rect x="255.979" y="106.662" style="fill:#e5f1df;" width="106.66" height="106.67"/> <g> <rect x="362.639" y="106.662" style="fill:#57ae37;" width="106.68" height="106.67"/> <rect x="42.656" style="fill:#57ae37;" width="106.67" height="106.66"/> </g> <rect x="149.329" style="fill:#e5f1df;" width="106.65" height="106.66"/> <rect x="255.979" style="fill:#57ae37;" width="106.66" height="106.66"/> <rect x="362.639" style="fill:#e5f1df;" width="106.68" height="106.66"/> <path style="fill:#FFCE54;" d="M263.525,472.437c4.171,4.172,4.171,10.922,0,15.094c-4.156,4.156-10.923,4.156-15.078,0 c-4.172-4.172-4.172-10.922,0-15.094C252.602,468.281,259.369,468.281,263.525,472.437z"/> <g> <path style="fill:#e5f1df;" d="M127.982,53.334c0,17.672-14.312,31.999-31.999,31.999c-17.672,0-31.999-14.327-31.999-31.999 c0-17.679,14.327-31.999,31.999-31.999C113.67,21.336,127.982,35.656,127.982,53.334z"/> <circle style="fill:#e5f1df;" cx="202.649" cy="159.992" r="31.999"/> <path style="fill:#e5f1df;" d="M340.921,53.717c0,17.672-14.312,31.999-31.999,31.999c-17.656,0-31.999-14.327-31.999-31.999 c0-17.671,14.343-31.999,31.999-31.999C326.608,21.719,340.921,36.046,340.921,53.717z"/> <path style="fill:#e5f1df;" d="M447.979,159.995c0,17.671-14.312,31.999-31.999,31.999c-17.687,0-31.998-14.328-31.998-31.999 s14.312-31.999,31.998-31.999C433.668,127.996,447.979,142.324,447.979,159.995z"/> </g> <g> <path style="fill:#434A54;" d="M341.326,266.656c0,17.68-14.343,32.006-31.998,32.006c-17.688,0-31.999-14.326-31.999-32.006 c0-17.671,14.312-32,31.999-32C326.983,234.657,341.326,248.985,341.326,266.656z"/> <path style="fill:#434A54;" d="M127.982,266.656c0,17.68-14.312,32.006-31.999,32.006c-17.672,0-31.999-14.326-31.999-32.006 c0-17.671,14.327-32,31.999-32C113.67,234.657,127.982,248.985,127.982,266.656z"/> <path style="fill:#434A54;" d="M234.65,373.316c0,17.688-14.328,31.998-31.999,31.998s-31.999-14.311-31.999-31.998 c0-17.672,14.328-31.998,31.999-31.998S234.65,355.644,234.65,373.316z"/> <path style="fill:#434A54;" d="M447.979,373.316c0,17.688-14.312,31.998-31.999,31.998c-17.687,0-31.998-14.311-31.998-31.998 c0-17.672,14.312-31.998,31.998-31.998C433.668,341.318,447.979,355.644,447.979,373.316z"/> </g> <rect x="42.656" y="426.662" style="fill:#7F4545;" width="426.67" height="21.328"/> </g>
</svg>